<?xml version="1.0" encoding="UTF-8" standalone="no"?>
<!-- Generator: Adobe Illustrator 16.0.0, SVG Export Plug-In . SVG Version: 6.00 Build 0)  -->

<svg
   xmlns:dc="http://purl.org/dc/elements/1.1/"
   xmlns:cc="http://creativecommons.org/ns#"
   xmlns:rdf="http://www.w3.org/1999/02/22-rdf-syntax-ns#"
   xmlns:svg="http://www.w3.org/2000/svg"
   xmlns="http://www.w3.org/2000/svg"
   xmlns:sodipodi="http://sodipodi.sourceforge.net/DTD/sodipodi-0.dtd"
   xmlns:inkscape="http://www.inkscape.org/namespaces/inkscape"
   version="1.1"
   id="Capa_1"
   x="0px"
   y="0px"
   width="191.764px"
   height="191.764px"
   viewBox="0 0 191.764 191.764"
   style="enable-background:new 0 0 191.764 191.764;"
   xml:space="preserve"
   sodipodi:docname="rss-logo-svgrepo-com.svg"
   inkscape:version="0.92.5 (2060ec1f9f, 2020-04-08)"><metadata
   id="metadata41"><rdf:RDF><cc:Work
       rdf:about=""><dc:format>image/svg+xml</dc:format><dc:type
         rdf:resource="http://purl.org/dc/dcmitype/StillImage" /></cc:Work></rdf:RDF></metadata><defs
   id="defs39" /><sodipodi:namedview
   pagecolor="#ffffff"
   bordercolor="#666666"
   borderopacity="1"
   objecttolerance="10"
   gridtolerance="10"
   guidetolerance="10"
   inkscape:pageopacity="0"
   inkscape:pageshadow="2"
   inkscape:window-width="1920"
   inkscape:window-height="1015"
   id="namedview37"
   showgrid="false"
   inkscape:zoom="1.2306793"
   inkscape:cx="95.882004"
   inkscape:cy="95.882004"
   inkscape:window-x="0"
   inkscape:window-y="28"
   inkscape:window-maximized="1"
   inkscape:current-layer="Capa_1" />
<g
   id="g4"
   transform="matrix(0.43891372,0,0,0.43891372,50.378533,50.547737)">
	<path
   d="m 190.315,51.683 c -0.765,-9.158 -1.025,-29.922 -11.329,-34.428 0.572,-1.566 0.051,-3.467 -2.143,-4.172 -8.88,-2.851 -18.558,-4.098 -28.22,-4.754 -19.93,-6.435 -49.596,3.18 -66.999,2.122 -23.831,-1.45 -59.455,-13.28 -75.987,10.726 -0.721,1.047 -0.809,2.054 -0.511,2.909 -0.638,0.507 -1.091,1.277 -1.125,2.341 -1.1,34.527 -2.28,69.027 -3.866,103.524 -1.066,23.188 3.794,43.878 28.066,51.277 10.797,3.292 22.884,2.402 34.057,2.904 14.926,0.671 29.843,1.318 44.787,1.385 11.707,0.052 28.352,0.914 42.724,-2.11 41.092,9.926 41.284,-35.874 41.759,-66.894 0.328,-21.616 0.589,-43.267 -1.213,-64.83 z M 7.481,144.101 c -0.01,0.006 -0.021,0.01 -0.031,0.018 -0.6,-6.728 -0.291,-13.795 0.153,-20.398 -0.161,6.783 -0.164,13.574 -0.122,20.38 z M 150.516,46.936 c -0.601,0.31 -1.104,0.762 -1.443,1.38 -0.499,-0.898 -1.015,-1.788 -1.547,-2.671 0.995,0.432 1.995,0.856 2.99,1.291 z M 128.39,43.229 c 1.078,1.294 2.156,2.588 3.234,3.882 -1.494,-1.296 -3.037,-2.51 -4.604,-3.682 0.513,0.056 0.97,-0.02 1.37,-0.2 z M 30.816,29.702 c 2.093,-0.498 4.191,-0.973 6.288,-1.451 0.148,0.015 0.28,0.074 0.435,0.068 0.503,-0.022 0.963,-0.101 1.456,-0.134 -1.808,0.4 -3.608,0.823 -5.387,1.295 -0.88,0.233 -1.306,0.795 -1.436,1.422 -0.446,-0.266 -0.951,-0.393 -1.453,-0.401 0.032,-0.268 0.064,-0.533 0.097,-0.799 z m -20.425,5.163 c -0.036,-2.811 -0.024,-5.637 -0.084,-8.439 -0.001,-0.062 -0.031,-0.103 -0.035,-0.163 0.183,-0.068 0.352,-0.188 0.527,-0.286 -0.396,1.758 -0.232,3.307 0.313,4.974 -0.287,1.277 -0.52,2.585 -0.721,3.914 z m 21.311,38.403 c -0.029,-0.532 -0.037,-1.064 -0.065,-1.596 2.593,-0.88 5.203,-1.699 7.827,-2.472 0.527,-0.039 1.054,-0.078 1.581,-0.121 -2.923,1.108 -5.855,2.427 -8.786,4.062 -0.19,0.018 -0.376,0.066 -0.557,0.127 z m 8.333,102.889 c 2.134,0.003 4.269,0.004 6.403,0.006 0.196,0.206 0.433,0.39 0.763,0.504 0.485,0.167 0.967,0.294 1.451,0.447 -2.901,-0.257 -5.784,-0.555 -8.617,-0.957 z m 10.144,-24.643 c -8.234,1.065 -13.359,-5.362 -13.719,-13.013 -0.398,-8.449 5.561,-15.157 13.494,-17.063 1.411,-0.339 1.817,-1.843 1.432,-3.007 6.757,0.561 11.978,5.156 14.184,12.53 3.202,10.71 -5.153,19.228 -15.391,20.553 z M 54.81,93.939 c 1.489,0.097 3.027,0.271 4.709,0.644 0.96,0.213 1.896,0.526 2.841,0.807 -0.043,0.329 -0.033,0.658 0.057,0.972 -0.054,-0.02 -0.108,-0.045 -0.162,-0.064 -0.101,-0.041 -0.198,-0.09 -0.299,-0.131 -0.026,-0.011 -0.049,-0.003 -0.076,-0.014 -1.687,-0.627 -3.382,-1.191 -5.084,-1.68 -0.13,-0.036 -0.25,-0.085 -0.389,-0.105 -0.532,-0.148 -1.064,-0.296 -1.597,-0.429 z m 19.363,44.319 c -0.599,0.756 -1.145,1.55 -1.721,2.321 0.411,-1.708 0.621,-3.501 0.629,-5.36 0.373,0.963 0.786,1.916 1.194,2.869 -0.033,0.058 -0.071,0.113 -0.102,0.17 z m 46.424,14.722 c -1.953,-0.078 -4.134,0.407 -5.646,0.597 -2.538,0.317 -5.139,0.555 -7.693,0.949 14.55,-11.062 -3.844,-38.118 -12.848,-46.983 C 85.255,98.528 73.619,91.734 61.219,88.418 53.424,86.334 40.394,86.014 34.436,92.77 c 0.047,-0.167 0.115,-0.317 0.125,-0.512 0.167,-3.01 0.333,-6.021 0.5,-9.031 0.141,-2.553 0.44,-4.426 0.067,-6.649 24.63,-9.606 47.797,-6.788 66.389,13.545 16.104,17.616 19.323,40.242 19.08,62.857 z m 41.954,-4.327 c -2.016,-0.595 -4.357,0.175 -6.44,0.516 -3.333,0.545 -6.887,1.268 -10.103,1.595 14.864,-26.571 -2.243,-59.59 -22.204,-77.893 C 99.95,50.998 65.017,42.62 34.268,52.386 c 0.435,-6.19 0.077,-12.891 -0.637,-19.009 0.327,0.115 0.682,0.182 1.086,0.125 35.311,-4.983 70.786,-2.808 97.695,23.19 24.473,23.645 30.626,59.406 30.139,91.961 z m 5.065,-31.072 c 0,0.284 -0.009,0.589 -0.014,0.885 -0.632,-4.41 -1.429,-8.789 -2.448,-13.104 0.055,0.039 0.107,0.078 0.165,0.113 0.995,3.325 2.057,6.632 3.163,9.927 -0.509,0.523 -0.866,1.228 -0.866,2.179 z"
   id="path2"
   inkscape:connector-curvature="0" />
</g>
<g
   id="g6">
</g>
<g
   id="g8">
</g>
<g
   id="g10">
</g>
<g
   id="g12">
</g>
<g
   id="g14">
</g>
<g
   id="g16">
</g>
<g
   id="g18">
</g>
<g
   id="g20">
</g>
<g
   id="g22">
</g>
<g
   id="g24">
</g>
<g
   id="g26">
</g>
<g
   id="g28">
</g>
<g
   id="g30">
</g>
<g
   id="g32">
</g>
<g
   id="g34">
</g>
</svg>