<?xml version="1.0" encoding="UTF-8" standalone="no"?>
<!-- Created with Inkscape (http://www.inkscape.org/) -->

<svg
   xmlns:dc="http://purl.org/dc/elements/1.1/"
   xmlns:cc="http://creativecommons.org/ns#"
   xmlns:rdf="http://www.w3.org/1999/02/22-rdf-syntax-ns#"
   xmlns:svg="http://www.w3.org/2000/svg"
   xmlns="http://www.w3.org/2000/svg"
   xmlns:sodipodi="http://sodipodi.sourceforge.net/DTD/sodipodi-0.dtd"
   xmlns:inkscape="http://www.inkscape.org/namespaces/inkscape"
   width="16px"
   height="16px"
   viewBox="0 0 16 16"
   version="1.1"
   id="SVGRoot"
   inkscape:version="0.92.5 (2060ec1f9f, 2020-04-08)"
   sodipodi:docname="rss-logo-svgrepo-com.svg">
  <defs
     id="defs19" />
  <sodipodi:namedview
     id="base"
     pagecolor="#ffffff"
     bordercolor="#666666"
     borderopacity="1.0"
     inkscape:pageopacity="0.0"
     inkscape:pageshadow="2"
     inkscape:zoom="22.627417"
     inkscape:cx="9.4890964"
     inkscape:cy="3.4756358"
     inkscape:document-units="px"
     inkscape:current-layer="layer1"
     showgrid="false"
     inkscape:window-width="1920"
     inkscape:window-height="1015"
     inkscape:window-x="0"
     inkscape:window-y="28"
     inkscape:window-maximized="1"
     inkscape:grid-bbox="true" />
  <metadata
     id="metadata22">
    <rdf:RDF>
      <cc:Work
         rdf:about="">
        <dc:format>image/svg+xml</dc:format>
        <dc:type
           rdf:resource="http://purl.org/dc/dcmitype/StillImage" />
        <dc:title />
      </cc:Work>
    </rdf:RDF>
  </metadata>
  <g
     inkscape:label="Layer 1"
     inkscape:groupmode="layer"
     id="layer1">
    <circle
       id="path32"
       cx="8.125"
       cy="8.1875"
       r="7.5625"
       style="fill:#ffffff" />
    <path
       inkscape:connector-curvature="0"
       d="m 7.1152354,9.3408953 a 4.2286157,4.2286157 0 0 1 1.2466579,3.0097127 0.4729268,0.4729268 0 0 1 -0.9458534,0 3.3105035,3.3105035 0 0 0 -3.3104878,-3.3104875 0.47292692,0.47292692 0 0 1 0,-0.9458531 4.2286435,4.2286435 0 0 1 3.0096833,1.2466279 z M 4.1055521,5.2567061 a 0.4729268,0.4729268 0 0 0 0,0.9458532 6.1481553,6.1481553 0 0 1 6.1480489,6.1480487 0.4729268,0.4729268 0 0 0 0.945854,0 7.0939567,7.0939567 0 0 0 -7.0939029,-7.0939019 z m 7.0226079,0.071292 a 9.8667688,9.8667688 0 0 0 -7.0226079,-2.9088587 0.47292746,0.47292746 0 0 0 0,0.9458549 8.9267837,8.9267837 0 0 1 6.3537999,2.6318671 8.9266852,8.9266852 0 0 1 2.631809,6.3537416 0.47292753,0.47292753 0 0 0 0.945855,0 A 9.8665538,9.8665538 0 0 0 11.12816,5.3279981 Z M 4.3420155,11.40475 a 0.70939019,0.70939019 0 1 0 0.7093902,0.70939 0.71018415,0.71018415 0 0 0 -0.7093902,-0.70939 z"
       id="path2"
       style="stroke-width:0.05911584;fill:#000000" />
  </g>
</svg>
